<svg width="332" height="54" viewBox="0 0 332 54" fill="none" xmlns="http://www.w3.org/2000/svg">
<path d="M75.7786 53.5554H67.162L49.4897 29.575V53.5554H40.3242V14.6082H48.9408L66.668 38.6442V14.6082H75.7786V53.5554Z" fill="#16478E"/>
<path d="M97.1354 14.1631C102.679 14.1631 108.331 15.8879 112.283 18.5029L108.606 26.2367C104.545 23.8442 99.4404 22.1751 96.3121 22.1751C93.7875 22.1751 92.0861 23.1209 92.0861 25.0127C92.0861 31.745 112.393 27.9059 112.393 41.9825C112.393 49.7719 105.587 53.8892 97.0256 53.8892C90.6043 53.8892 84.0183 51.4411 79.463 47.6577L83.25 40.0351C87.2015 43.5404 93.1289 45.8772 97.1354 45.8772C100.209 45.8772 102.13 44.7088 102.13 42.4832C102.13 35.584 81.823 39.7013 81.823 25.9029C81.823 18.7255 87.915 14.1631 97.1354 14.1631Z" fill="#16478E"/>
<path d="M145.957 22.5645H134.376V53.5554H124.607V22.5645H113.137V14.5526H145.957V22.5645Z" fill="#16478E"/>
<path d="M170.442 46.378H153.648L150.849 53.5554H140.805L157.38 14.6082H167.423L183.614 53.5554H173.186L170.442 46.378ZM167.588 38.8667L162.1 24.4563L156.502 38.8667H167.588Z" fill="#16478E"/>
<path d="M203.041 14.2744C208.749 14.2744 214.676 16.8337 218.518 20.8397L212.865 27.6277C210.34 24.5119 206.608 22.5645 203.206 22.5645C197.114 22.5645 192.503 27.4608 192.503 33.8592C192.503 40.369 197.114 45.3208 203.206 45.3208C206.444 45.3208 210.176 43.5404 212.865 40.7584L218.573 46.8787C214.457 51.1629 208.365 54.0005 202.712 54.0005C191.131 54.0005 182.515 45.3765 182.515 33.9705C182.515 22.7315 191.351 14.2744 203.041 14.2744Z" fill="#7ED1E6"/>
<path d="M247.087 46.378H230.293L227.494 53.5554H217.45L234.025 14.6082H244.069L260.259 53.5554H249.831L247.087 46.378ZM244.233 38.8667L238.745 24.4563L233.147 38.8667H244.233Z" fill="#7ED1E6"/>
<path d="M285.864 53.5554L280.156 42.5945H272.472V53.5554H262.703V14.6082H279.881C290.035 14.6082 295.852 19.5044 295.852 28.1841C295.852 34.1374 293.383 38.4216 288.882 40.7028L296.95 53.5554H285.864ZM272.472 34.8051H279.881C284.107 34.8051 286.577 32.6352 286.577 28.5179C286.577 24.4563 284.107 22.3976 279.881 22.3976H272.472V34.8051Z" fill="#7ED1E6"/>
<path d="M331.396 22.3976H311.09V30.1314H329.421V37.9209H311.09V45.7659H332V53.5554H301.321V14.6082H331.396V22.3976Z" fill="#7ED1E6"/>
<path d="M13.9707 19.1524C13.9707 16.3969 16.2045 14.1631 18.9601 14.1631V14.1631C21.7156 14.1631 23.9494 16.3969 23.9494 19.1524V53.6161H13.9707V19.1524Z" fill="#16478E"/>
<path fill-rule="evenodd" clip-rule="evenodd" d="M27.9404 25.6539C28.326 25.1007 28.6631 24.51 28.946 23.8879C29.9801 21.6139 30.2289 19.0531 29.6523 16.6182C29.0757 14.1834 27.7072 12.0162 25.7675 10.466C23.8277 8.91573 21.4296 8.07269 18.9596 8.07269C16.4895 8.07269 14.0914 8.91573 12.1517 10.466C10.2119 12.0162 8.84349 14.1834 8.26687 16.6182C7.69025 19.0531 7.93904 21.6139 8.97314 23.8879C9.25601 24.5099 9.59314 25.1006 9.97872 25.6538V36.1482C6.35865 34.1744 3.46564 31.0589 1.74158 27.2676C-0.0413568 23.3469 -0.470299 18.9317 0.52387 14.7337C1.51804 10.5357 3.87742 6.79919 7.22183 4.12635C10.5662 1.45352 14.7009 0 18.9596 0C23.2183 0 27.3529 1.45352 30.6973 4.12636C34.0417 6.79919 36.4011 10.5357 37.3953 14.7337C38.3895 18.9317 37.9605 23.3469 36.1776 27.2676C34.4535 31.0589 31.5605 34.1744 27.9404 36.1482V25.6539Z" fill="#7ED1E6"/>
</svg>
